# xmcd
# Track frame offsets:
# 180
# 15988
# 29052
# 45506
# 59782
# 116312
# 135282
# 145465
# 171055
# 210814
# 224394
# 238115
# 244993
# 258890
# 265418
# 281540
#
# Disc length: 3954 seconds
# Revision: 0
# Processed by: cddbd v1.4PL0 Copyright (c) Steve Scherf et al.
# Submitted via: VisiTrax 2.9.5.181 - For more info visit www.synapsa.com
#
DISCID=e80f7010
DTITLE=Hector Moreno - Norberto Capelli - Tangos y Malambos - piano duet ( Pi
DTITLE=azzolla e Ginastera )
DYEAR=1900
DGENRE=
TTITLE0=Verano porteno
TTITLE1=Otono porteno
TTITLE2=Invierno porteno
TTITLE3=Primavera porteno
TTITLE4=Tangazo
TTITLE5=Milonga del angel
TTITLE6=Muerte del angel
TTITLE7=Resurreccion del angel
TTITLE8=Adiòs nonino
TTITLE9=Los trabajadores agricolas
TTITLE10=Danza del trigo
TTITLE11=Los peones de hacienda
TTITLE12=Danza final: Malambo
TTITLE13=Danza del viejo boyero
TTITLE14=Danza de la moza donosa
TTITLE15=Danza del gaucho matrero
EXTD=
EXTT0=
EXTT1=
EXTT2=
EXTT3=
EXTT4=
EXTT5=
EXTT6=
EXTT7=
EXTT8=
EXTT9=
EXTT10=
EXTT11=
EXTT12=
EXTT13=
EXTT14=
EXTT15=
PLAYORDER=
